<?xml version="1.0" encoding="utf-8"?>
<!-- Generator: Adobe Illustrator 16.0.0, SVG Export Plug-In . SVG Version: 6.00 Build 0)  -->
<!DOCTYPE svg PUBLIC "-//W3C//DTD SVG 1.1//EN" "http://www.w3.org/Graphics/SVG/1.1/DTD/svg11.dtd">
<svg version="1.1" id="Layer_1" xmlns="http://www.w3.org/2000/svg" xmlns:xlink="http://www.w3.org/1999/xlink" x="0px" y="0px"
	 width="842.268px" height="844.33px" viewBox="0 0 842.268 844.33" enable-background="new 0 0 842.268 844.33"
	 xml:space="preserve">
<g>
	<path d="M781.059,628.137c2.78-7.461,0.231-21.313,1.48-30.315c18.605-44.365,11.213-99.473,13.311-150.839
		c-1.522-10.02-14.421-4.745-19.966-9.613c1.233-2.527,3.694-2.527,5.915-3.697c8.873,5.791,15.729-1.141,23.66-5.175v-11.831
		c-3.388-6.472-15.098-0.923-15.527-11.093c-12.814-2.464-22.905-2.001-34.014-6.655l-71.721-295.763
		c-2.512-7.825-5.979-12.138-12.57-13.309L329.278,39.566c-5.36-5.545-8.096-14.326-15.526-17.745
		c-33.274-4.436-65.315-11.215-99.082-13.31c-10.792,0.402-3.63,16.385-2.219,24.402l81.335,273.583
		c3.636,12.2,9.489,23.29,17.747,33.273c-8.257,5.115-17.807,5.421-25.14,11.09l-167.847,45.843l-51.758,14.788l-0.74,17.008
		c-0.153,0.725-20.796,9.735-29.575,16.268c-3.544,7.639-4.006,15.495-3.698,24.4c2.464,10.196,17.715,10.121,24.4,14.048
		c-0.292-0.386-1.062,10.013-1.479,9.612C40.092,498,20.76,501.852,7.635,509.093c-0.123,1.23-0.43,3.927,0.74,5.175l102.039,76.898
		c-0.385,0.03,0.771,0.494,0-0.739c-0.308,1.387-1.087,36.868-0.74,36.97c1.117,1.559,5.591,4.547,0,7.396l4.436,70.244
		l5.176,11.093c14.234,6.161,30.871,7.393,45.843,13.307c9.366,8.873,15.836,23.047,29.577,25.881
		c0.124,4.559,1.664,8.873,4.437,12.57c5.238,4.621,13.864,1.541,19.225,0.737c76.282,21.753,153.921,39.621,229.956,62.111
		c4.375,4.314,9.613,10.169,17.745,7.396c6.963,0,9.43-6.469,12.57-11.091l210.733-88.731c0.786,4.854,3.097,6.856,6.655,11.093
		c7.685,6.469,17.005,6.854,25.881,2.218c13.617-7.07,7.323-32.729,14.784-36.23c10.847-4.345,99.822-45.844,99.822-45.844v-11.093
		c-24.587-1.94-45.533-5.791-66.546-8.872c0.061-0.307,0.367-16.175,0.74-16.268C776.107,632.265,780.767,629.561,781.059,628.137
		L781.059,628.137z"/>
	<path fill="#CCCCCC" d="M693.068,736.832c1.637,13.494,20.582,17.038,27.36,11.83c8.01-5.885,5.392-20.287,9.609-28.838
		L693.068,736.832L693.068,736.832z"/>
	<path fill="#CCCCCC" d="M313.752,24.779c6.469,4.544,9.202,13.94,14.788,18.485l132.354,18.485l207.773,30.315
		c5.604,1.546,10.723,2.728,13.31,13.311l40.669,167.845l30.315,126.439c3.896,14.851,10.678,28.714,1.48,28.838l-2.958-0.74
		l-431.078-87.989c-10.66-3.205-14.741-13.527-20.703-22.923L213.931,26.996c-0.924-5.298-4.737-15.811,2.219-15.528
		C250.168,13.574,280.478,20.465,313.752,24.779L313.752,24.779z"/>
	<path fill="#D9D9D9" stroke="#000000" stroke-width="1.2324" stroke-linecap="square" stroke-miterlimit="2" d="M679.02,109.073
		c-3.096-10.43-8.214-11.611-14.048-13.311l3.695-3.698c5.604,1.546,10.723,2.728,13.31,13.311"/>
	<path d="M310.055,30.694c4.004,3.636,6.429,11.261,8.873,13.309c-32.673-2.896-69.529-8.787-100.559-13.309
		c-0.74-0.56-1.664-12.154-1.48-14.788h1.48L310.055,30.694L310.055,30.694z"/>
	<path fill="#BFBFBF" d="M307.835,32.913c2.836,3.111,4.222,4.498,5.917,8.873c-32.813-4.683-59.771-8.648-93.905-13.309
		l-0.74-10.353C251.671,24.008,278.014,27.089,307.835,32.913L307.835,32.913z"/>
	<polygon fill="#D9D9D9" stroke="#000000" stroke-width="1.2324" stroke-linecap="square" stroke-miterlimit="2" points="
		219.107,29.215 218.368,17.385 224.283,18.124 225.762,29.954 219.107,29.215 	"/>
	<path fill="#E6E6E6" d="M733.739,437.37c14.725,0.863,26.435-6.222,39.925-9.612c-14.724,6.161-29.821,13.247-46.58,11.093
		l-2.96,3.694l-175.237-34.75l-212.212-42.886l-44.364-12.57l2.217-2.22l69.505,13.311L733.739,437.37L733.739,437.37z"/>
	<path fill="#FFFFFF" d="M701.943,444.025c1.077-0.093,1.384,0.523,1.48,1.478L540.01,498l-377.838-81.333h-0.74
		c58.507-17.098,114.886-31.579,171.544-48.8l34.753,6.652L701.943,444.025L701.943,444.025z"/>
	<path fill="#666666" d="M411.354,389.309c-51.081,15.034-102.839,30.746-155.276,44.363l-2.219-2.218l150.101-43.625
		C406.794,387.399,408.334,389.863,411.354,389.309L411.354,389.309z"/>
	<path fill="#666666" d="M421.705,391.527c-50.65,13.434-102.1,30.068-150.1,43.626
		C321.146,419.438,371.364,405.884,421.705,391.527L421.705,391.527z"/>
	<polygon fill="#666666" points="367.729,410.012 426.144,393.004 428.359,393.004 367.729,410.012 	"/>
	<path fill="#E6E6E6" d="M786.234,409.272c-9.194,2.157-22.366,4.236-23.66,11.093l-5.175-18.485L786.234,409.272L786.234,409.272z"
		/>
	<polygon fill="#666666" points="358.855,412.969 363.292,411.489 365.51,411.489 358.855,412.969 	"/>
	<path fill="#D6D6D6" d="M789.195,420.365l-25.141,7.393c-1.42-13.864,15.449-13.094,23.66-16.268h1.48V420.365L789.195,420.365z"/>
	<polygon fill="#666666" points="315.231,424.799 352.94,413.709 355.159,413.709 315.231,424.799 	"/>
	<polygon fill="#666666" points="311.533,426.28 311.533,426.28 273.824,437.37 273.824,437.37 311.533,426.28 	"/>
	<path fill="#D9D9D9" d="M480.86,598.562c-0.548,32.521-1.69,53.148-1.48,75.419c19.304-6.454,29.545-11.307,49.541-18.485
		c2.341-42.269,5.422-82.938,5.915-124.22h-0.74l0,0c-4.067,0.308-10.536,2.771-13.311,3.695
		c-4.771,2.928-34.274,9.475-34.01,42.148h0.74c10.088-2.711,18.101-4.408,25.878-5.915v17.745c-4.932,1.787-0.154,0.246-2.218,0
		c-10.876,3.327-15.423,4.329-30.315,8.872V598.562L480.86,598.562z"/>
	<path fill="#E6E6E6" d="M788.455,443.285c-3.944,2.034-7.949,2.958-11.83,3.698v-2.218c-5.979-1.294-11.523-2.527-17.008-3.698
		c8.259-6.225,18.422,1.171,28.098,1.478L788.455,443.285L788.455,443.285z"/>
	<path fill="#D9D9D9" d="M774.404,565.287l2.221-115.347c5.729-0.307,10.35-4.314,16.265-5.175
		c-1.907,38.448,0.554,72.03-2.217,113.129C785.47,562.239,780.813,562.545,774.404,565.287L774.404,565.287L774.404,565.287z"/>
	<path fill="#E6E6E6" d="M518.571,529.796l1.477,3.697c85.771-27.174,168.955-60.141,254.356-85.034
		c-1.601-1.601-3.758-1.601-5.175-2.217c-6.285-0.308-8.211-0.846-16.268,2.217L518.571,529.796L518.571,529.796z"/>
	<path fill="#4D4D4D" d="M516.35,523.141c0.969-4.959,0.123-8.195,0.74-12.57L70.485,412.969l-0.739,8.133l0,0l104.997,25.141
		L516.35,523.141L516.35,523.141z"/>
	<path fill="#CCCCCC" d="M39.431,449.94c-0.802,7.702-3.883,13.864,0,20.703c46.49,13.187,24.77,7.948,84.292,24.4l350.481,83.554
		l1.478-23.66l-345.304-79.116h-0.74l-87.25-25.881H39.431L39.431,449.94z"/>
	<path fill="#E6E6E6" d="M68.267,430.714l90.948,22.183l277.279,62.852l80.597,17.745l-0.74,1.478
		c-39.618,14.791-30.225,44.982-32.535,43.626c0.463,0.586-6.084,1.588-6.656-0.74c0.494-0.061,0.804-22.243,1.48-22.181
		c0.247-3.989-4.603-3.219-4.435-3.697l-343.826-79.856l-89.469-25.88L68.267,430.714L68.267,430.714z"/>
	<polyline fill="#F2F2F2" points="130.378,472.123 40.909,446.243 68.267,430.714 159.215,452.897 	"/>
	<path fill="#D9D9D9" d="M751.484,446.983l-232.176,80.596v0.737c0.015-5.897,0.171-11.367,0-17.005l171.545-54.716
		c10.934-3.343,48.675-20.673,61.371-11.83L751.484,446.983L751.484,446.983z"/>
	<path fill="#D9D9D9" d="M772.186,566.767l-240.309,87.251v-4.438c2.001-40.668,4.932-83.491,7.393-119.784
		c2.467-1.601,4.932-2.835,8.136-3.698l226.998-76.158C773.417,489.068,772.803,527.579,772.186,566.767L772.186,566.767z"/>
	<path d="M371.425,520.923l-223.302-49.54c6.578-4.191,11.276-6.963,18.485-10.354l225.521,50.281L371.425,520.923L371.425,520.923z
		"/>
	<path fill="#BFBFBF" d="M114.11,509.831l-2.217,62.852l-45.845-33.273c-4.621-13.37-6.777-27.852-6.654-42.886l1.479-11.093
		l62.85,19.966L114.11,509.831L114.11,509.831z"/>
	<path fill="#D9D9D9" d="M179.917,520.183L179.917,520.183c-14.242-3.155-35.307-8.972-48.801-12.57l0.74-4.435
		c12.754,2.756,45.258,10.458,58.414,13.308L179.917,520.183L179.917,520.183z"/>
	<path fill="#FFFFFF" d="M56.437,520.183v2.218l-20.704-14.788C43.25,510.634,49.412,516.179,56.437,520.183L56.437,520.183z"/>
	<path fill="#CCCCCC" d="M176.221,563.809c0.139,0.563-0.135,4.877,0,7.396c2.243,0.749,6.409,2.094,8.873,2.218
		c2.008-0.41,6.168-4.736,6.655-5.176c5.431-0.496,10.41-0.433,13.309-7.395c3.327-7.086,3.944-20.333,2.219-26.618l29.577,7.393
		l161.93,38.45c-2.002,41.159-4.081,78.208-5.175,116.087l-8.874-2.218l-265.448-65.068c-6.332-1.017-5.485-5.484-6.655-8.135
		l4.437-109.432l0,0l47.323,13.311c-4.262,9.928-1.833,14.125,2.218,21.442C166.565,554.579,170.688,561.706,176.221,563.809
		L176.221,563.809z"/>
	<path d="M448.324,531.276l0.74,0.737l-9.612,5.915l-59.153-14.047c-0.23-0.386,10.783-6.24,11.091-6.655
		C392.236,517.797,448.384,531.044,448.324,531.276L448.324,531.276z"/>
	<path fill="#E6E6E6" d="M205.798,528.316l-2.219,12.57c-1.741-7.916-4.128-14.003-14.049-18.485c-3.713-0.445-5.792,2.714-9.613,0
		C188.668,519.26,200.683,518.336,205.798,528.316L205.798,528.316z"/>
	<path d="M466.809,543.106c-1.323,0.801-21.734-3.82-23.66-5.178l0,0l19.226-9.612l22.92,5.178
		C479.193,537.823,470.185,542.059,466.809,543.106L466.809,543.106z"/>
	<path fill="#CCCCCC" d="M466.809,540.886c-0.697,0.03-15.994-3.518-17.005-3.694c0.662-0.681,11.599-6.457,12.57-6.655
		c3.649,1.354,15.819,3.664,17.005,4.435C477.761,535.208,467.526,540.817,466.809,540.886L466.809,540.886z"/>
	<path fill="#D1D1D1" d="M760.356,606.695c-2.954,0.866-14.851,5.587-17.748,6.655c0.542-5.052,3.659-17.375,3.701-20.703
		c-70.364,28.706-150.656,55.239-220.346,82.074l5.914-17.745l238.832-87.992C767.647,578.025,762.023,601.965,760.356,606.695
		L760.356,606.695z"/>
	<path fill="#D9D9D9" d="M730.778,601.52c0.175,0.207,12.534-4.637,12.57-4.438c-0.045,0.048-3.396,17.3-3.694,17.008
		c-0.223,0.469-12.582,5.373-13.311,5.915C726.647,619.786,730.928,601.76,730.778,601.52L730.778,601.52z"/>
	<path fill="#D9D9D9" d="M777.365,626.661l-6.655,2.957c0.246-11.77-2.221-21.936,0-23.663l8.133-3.697
		C778.833,604.821,780.171,623.173,777.365,626.661L777.365,626.661z"/>
	<path fill="#D9D9D9" d="M766.272,611.132v38.448l-65.069-8.873l0.74-9.612c22.836-8.74,40.205-15.02,64.329-23.66V611.132
		L766.272,611.132z"/>
	<polygon fill="#FFFFFF" points="701.203,627.397 705.638,614.828 702.683,627.397 701.203,627.397 	"/>
	<polygon fill="#FFFFFF" points="710.076,623.703 714.513,610.392 711.553,623.703 710.076,623.703 	"/>
	<polygon fill="#FFFFFF" points="720.428,618.525 724.863,605.217 721.909,618.525 720.428,618.525 	"/>
	<path fill="#CCCCCC" d="M117.808,705.037l-3.698-65.81h0.74l343.824,85.034c1.42,26.064-2.895,51.019-2.215,76.899h-4.438
		l-329.778-88.729L117.808,705.037L117.808,705.037z"/>
	<path fill="#E6E6E6" d="M517.09,701.338c-19.102,7.089-31.272,13.094-51.021,16.268l-347.522-85.03l-5.175,2.957l343.825,86.512
		l5.918,0.737l-3.7,79.858c2.373,2.371,4.067,0.678,6.654,0.737c1.421-25.631,1.881-55.209,3.698-79.855l55.456-18.485
		L517.09,701.338L517.09,701.338z"/>
	<path fill="#D9D9D9" d="M469.03,801.161c17.865-8.01,37.277-14.171,53.976-23.66c2.094-25.018,3.405-46.662,3.694-70.247
		l-53.235,17.748L469.03,801.161L469.03,801.161z"/>
	<polygon fill="#B3B3B3" points="674.583,638.491 527.44,693.946 523.746,694.683 526.7,682.853 527.44,692.466 673.845,637.01 
		674.583,637.01 674.583,638.491 	"/>
	<path fill="#CCCCCC" d="M454.239,710.952l0.74-0.737l22.18-35.493v-1.478c-0.12-12.88,0.344-56.013,0.74-75.422l-8.869-1.479
		l-68.027-15.525c-1.834,39.035-3.528,76.391-5.177,115.347L454.239,710.952L454.239,710.952z"/>
	<path fill="#D1D1D1" d="M457.937,710.214c8.782-1.017,26.497-15.038,34.013-17.748c1.417,2.403,0.493,12.263-2.221,16.268
		l5.916-3.697c4.5-1.541,5.424-6.469,5.918-11.091c-1.725-14.174,14.525-14.096,21.442-17.748l5.915-18.485
		c-15.527,5.5-31.242,11.894-49.541,18.485L457.937,710.214L457.937,710.214z"/>
	<path fill="#CCCCCC" d="M477.899,711.692l-10.35-0.74c8.563-0.984,14.111-9.303,21.443-13.308
		C489.976,704.729,482.894,707.963,477.899,711.692L477.899,711.692z"/>
	<path fill="#D9D9D9" d="M628.002,732.394c1.721,1.158,0.078-0.632,0.74,0.74c-18.148,6.947-35.632,14.881-52.502,20.702
		c0.849,0.033,4.086-19.453,4.438-19.222c-0.352,0-16.22-2.928-17.008-2.961c-0.599,0.957-25.092,10.663-26.614,11.093
		c0.288-0.123,0.214,28.068,0,28.099l-11.093,5.175c1.446-15.218,1.679-29.931,2.217-42.886c0.617-0.292,0.611-6.068,0.74-5.915
		C556.432,729.247,600.168,730.893,628.002,732.394L628.002,732.394z"/>
	<path fill="#BFBFBF" d="M454.979,807.076c1.107,3.944,1.728,11.646,2.218,16.268l-193.726-53.238l-72.462-19.226
		c-8.964-5.945-14.973-15.034-17.745-19.963L454.979,807.076L454.979,807.076z"/>
	<path fill="#B3B3B3" d="M236.854,766.407l209.991,56.937c0.31,0.616,0.619,1.23,1.479,0.737v2.96l-217.387-59.153
		c-11.46-10.477-26.249,8.933-32.534-7.396l0.74-3.697C211.775,759.569,225.022,762.957,236.854,766.407L236.854,766.407z"/>
	<path fill="#D4D4D4" d="M504.52,790.807c-3.298,7.735-4.991,14.668-9.612,25.141l-24.4,7.396
		c-1.018-3.234,0.063-14.018,0.737-19.226C483.815,800.083,489.055,797.616,504.52,790.807L504.52,790.807z"/>
	<polygon fill="#D9D9D9" points="467.549,824.081 460.154,823.343 458.674,807.815 468.29,807.076 467.549,824.081 	"/>
	<path fill="#B3B3B3" d="M472.724,827.041c2.157,4.929-3.388,6.469-6.655,7.393c-5.668,0.924-12.753,0-13.31-6.655
		c1.173-5.052,5.794,1.417,9.615,0L472.724,827.041L472.724,827.041z"/>
	<polygon fill="#E6E6E6" points="412.094,568.247 476.422,583.035 505.26,576.379 505.26,582.294 477.159,588.95 412.094,574.162 
		412.094,568.247 	"/>
	<polyline fill="#CCCCCC" points="477.159,588.95 412.094,574.162 412.094,568.247 476.422,583.035 	"/>
	<polygon fill="#E6E6E6" points="412.094,575.639 476.422,591.167 505.26,584.512 510.435,587.469 478.639,595.605 403.959,578.597 
		412.094,575.639 	"/>
	<polyline fill="#D9D9D9" points="478.639,595.605 403.959,578.597 412.094,575.639 476.422,591.167 	"/>
	<path d="M573.287,549.022l-2.221,56.195l2.221,1.478l-3.701,2.218l1.48-62.111c1.173-0.12,2.208-0.698,4.438-0.737L573.287,549.022
		L573.287,549.022z"/>
	<path d="M584.376,544.583l-1.48,56.937l2.221,1.477l-4.438,1.48l2.218-61.371c0.896-0.469,1.932-1.047,3.697-1.479L584.376,544.583
		L584.376,544.583z"/>
	<path d="M597.687,540.886l-1.48,56.936l2.22,1.48l-4.438,1.478l1.478-61.371c1.42-0.43,2.455-1.008,4.438-1.48L597.687,540.886
		L597.687,540.886z"/>
	<path d="M609.517,537.192l-2.221,56.192l2.221,1.48l-3.698,2.218l1.478-62.111c1.144-0.036,2.179-0.614,4.438-0.737
		L609.517,537.192L609.517,537.192z"/>
	<path d="M622.086,532.753l-1.479,56.196l2.22,1.478l-3.7,2.22l1.48-62.11c0.927-0.03,1.962-0.608,3.697-0.74L622.086,532.753
		L622.086,532.753z"/>
	<path d="M633.917,528.316l-1.479,56.937l2.22,1.479l-4.438,1.478l1.478-61.371c1.39-0.376,2.425-0.953,4.438-1.477L633.917,528.316
		L633.917,528.316z"/>
	<path d="M647.227,524.622l-2.22,56.933l2.22,1.48l-3.7,1.478l1.48-61.371c1.173-0.337,2.208-0.915,4.438-1.478L647.227,524.622
		L647.227,524.622z"/>
	<path d="M658.317,520.923l-1.479,56.196l2.22,2.217l-4.438,1.48l2.218-62.11c0.896,0.054,1.932-0.524,3.697-0.74L658.317,520.923
		L658.317,520.923z"/>
	<path d="M672.368,515.749l-1.48,56.193l2.218,1.48l-4.438,2.217l1.479-62.111c1.451-0.159,2.485-0.736,4.436-0.736L672.368,515.749
		L672.368,515.749z"/>
	<path d="M685.675,512.051l-1.478,56.195l1.478,1.478l-3.698,2.218l1.48-62.111c1.234-0.12,2.269-0.698,4.436-0.737L685.675,512.051
		L685.675,512.051z"/>
	<path d="M696.768,507.613l-1.48,56.937l2.218,1.478l-3.698,1.479l1.48-61.37c0.957-0.47,1.992-1.048,3.698-1.48L696.768,507.613
		L696.768,507.613z"/>
	<path d="M710.076,503.178l-1.478,56.934l2.218,1.48l-4.438,1.477l1.48-61.371c1.48-0.46,2.516-1.037,4.436-1.477L710.076,503.178
		L710.076,503.178z"/>
	<path d="M721.909,499.481l-1.48,56.195l1.48,1.478l-3.701,2.218l1.48-62.108c1.204-0.069,2.238-0.646,4.436-0.74L721.909,499.481
		L721.909,499.481z"/>
	<path d="M734.476,495.783l-1.478,56.196l2.218,1.478l-3.698,2.22l1.48-62.11c0.987-0.03,2.021-0.608,4.435-0.74L734.476,495.783
		L734.476,495.783z"/>
	<path d="M746.309,491.345l-1.48,56.937l2.218,1.48l-4.438,1.477l1.48-61.371c1.45-0.376,2.485-0.953,4.435-1.477L746.309,491.345
		L746.309,491.345z"/>
	<path fill="#D1D1D1" d="M789.932,561.592l-17.006,6.654l-10.353,36.971c0,0,15.39-4.892,17.005-7.396
		C781.814,594.934,789.932,561.592,789.932,561.592L789.932,561.592z"/>
	<polygon fill="#CCCCCC" points="409.136,573.422 215.409,526.838 214.67,521.664 409.136,567.506 409.136,573.422 	"/>
	<polygon fill="#D9D9D9" points="401.002,577.857 209.494,532.753 215.409,529.796 408.396,574.899 401.002,577.857 	"/>
	<polygon fill="#CCCCCC" points="182.876,570.464 179.179,568.984 178.439,524.622 182.876,525.362 182.876,570.464 	"/>
	<path fill="#CCCCCC" d="M202.101,543.106c-0.185,9.427-1.417,19.286-10.352,23.661v-42.146
		C198.219,529.12,199.451,536.822,202.101,543.106L202.101,543.106z"/>
	<path fill="#CCCCCC" d="M176.221,560.112c-8.889-6.192-9.428-26.064,0-34.014V560.112L176.221,560.112z"/>
	<path fill="#D9D9D9" d="M188.792,566.767c-0.432,1.479-2.28,1.787-3.698,1.479v-43.625l3.698-0.74V566.767L188.792,566.767z"/>
	<path fill="#D9D9D9" d="M176.221,522.401l-4.436-1.478c0,0-3.457,1.502-5.176,4.438c-2.801,5.888,0.314,18.611,0.74,14.047
		c0.215-6.285,0.215-8.211,3.696-13.311C172.783,524.414,174.881,522.726,176.221,522.401L176.221,522.401z"/>
	<polygon fill="#E6E6E6" points="169.566,520.183 128.899,509.093 120.025,509.831 165.87,522.401 169.566,520.183 	"/>
	
		<path fill="#CCCCCC" stroke="#000000" stroke-width="1.2324" stroke-linecap="round" stroke-linejoin="round" stroke-miterlimit="2" d="
		M347.025,639.967c-8.025-1.516-17.206-4.335-26.619-5.915V611.87l27.358,5.918L347.025,639.967L347.025,639.967z"/>
	
		<polygon fill="#999999" stroke="#000000" stroke-width="1.2324" stroke-linecap="round" stroke-linejoin="round" stroke-miterlimit="2" points="
		347.025,639.967 347.764,617.788 344.806,621.483 344.806,633.313 347.025,639.967 	"/>
	
		<path fill="#E6E6E6" stroke="#000000" stroke-width="1.2324" stroke-linecap="round" stroke-linejoin="round" stroke-miterlimit="2" d="
		M344.806,633.313c0.188,0.652,1.581,5.613,1.479,5.914c-10.807-1.774-16.243-3.363-25.879-5.175l4.437-4.435
		C332.579,631.032,336.334,631.961,344.806,633.313L344.806,633.313z"/>
	
		<path fill="#B3B3B3" stroke="#000000" stroke-width="1.2324" stroke-linecap="round" stroke-linejoin="round" stroke-miterlimit="2" d="
		M344.806,621.483c0.396-0.283,2.645-3.912,2.958-4.436c-10.875-2-17.569-3.081-26.618-5.178l3.696,5.178
		C333.185,618.949,335.457,619.497,344.806,621.483L344.806,621.483z"/>
	
		<polygon fill="#D9D9D9" stroke="#000000" stroke-width="1.2324" stroke-linecap="round" stroke-linejoin="round" stroke-miterlimit="2" points="
		320.406,611.87 324.842,617.047 325.583,628.877 320.406,634.052 320.406,611.87 	"/>
	<path fill="#D9D9D9" d="M466.069,717.606l-347.522-85.03l-5.175,2.957l349.743,87.989c-0.003,0,1.943-1.117,2.954-2.218
		C466.433,720.344,466.069,717.606,466.069,717.606L466.069,717.606z"/>
	<polygon fill="#999999" points="832.821,659.933 691.59,724.261 691.59,733.134 832.821,667.326 832.821,659.933 	"/>
	<polygon fill="#808080" points="529.661,701.338 566.631,710.952 687.893,724.261 687.893,733.134 528.92,725.001 529.661,701.338 
			"/>
	<polygon fill="#999999" points="690.853,721.304 568.848,709.474 534.095,698.381 679.02,640.708 698.246,651.797 807.68,666.588 
		690.853,721.304 	"/>
	<polyline fill="#B3B3B3" points="568.848,709.474 534.095,698.381 679.02,640.708 698.246,651.797 	"/>
	<path fill="#D4D4D4" d="M687.153,735.352l-53.236-2.218l-5.174,2.957L508.955,788.59c-2.804,7.642-4.958,16.114-8.132,23.66
		l187.07-76.159L687.153,735.352L687.153,735.352z"/>
	<polygon fill="#E0E0E0" points="564.411,733.134 577.721,735.352 553.321,745.705 539.27,743.487 564.411,733.134 	"/>
	<path fill="#C7C7C7" d="M539.27,770.845c0,0,5.701-3.189,7.396-5.915c2.157-3.437,5.915-17.745,5.915-17.745l-13.311-2.221V770.845
		L539.27,770.845z"/>
	<path fill="#D1D1D1" d="M577.721,737.572l-22.92,9.613c0-0.003-4.053,15.079-5.178,17.005c-1.186,1.926-3.698,3.697-3.698,3.697
		l28.101-11.83L577.721,737.572L577.721,737.572z"/>
	<polygon points="564.411,734.615 571.806,736.091 553.321,743.487 545.925,742.747 564.411,734.615 	"/>
	<polygon fill="#808080" points="825.425,659.933 701.203,642.925 681.977,639.227 700.463,650.321 812.115,665.108 
		825.425,659.933 	"/>
	<polygon fill="#1A1A1A" points="778.842,679.159 676.063,668.066 676.063,666.588 781.059,677.678 778.842,679.159 	"/>
	<polygon fill="#1A1A1A" points="789.195,674.721 687.893,663.631 688.633,662.151 791.412,673.244 789.195,674.721 	"/>
	<polygon fill="#1A1A1A" points="799.544,669.545 698.246,658.453 698.986,656.976 801.765,668.066 799.544,669.545 	"/>
	<polygon fill="#1A1A1A" points="744.829,694.683 642.049,684.333 642.79,682.853 747.046,693.207 744.829,694.683 	"/>
	<polygon fill="#1A1A1A" points="757.399,690.249 656.097,678.418 656.837,676.938 758.879,688.768 757.399,690.249 	"/>
	<polygon fill="#1A1A1A" points="767.008,684.333 665.712,673.244 666.453,671.763 769.229,682.853 767.008,684.333 	"/>
	<polygon fill="#1A1A1A" points="710.816,710.952 607.296,700.601 608.037,699.122 712.293,709.474 710.816,710.952 	"/>
	<polygon fill="#1A1A1A" points="720.428,706.516 619.867,695.423 619.867,693.946 722.646,705.037 720.428,706.516 	"/>
	<polygon fill="#1A1A1A" points="685.675,720.564 582.896,710.214 582.896,708.734 687.893,719.086 685.675,720.564 	"/>
	<polygon fill="#1A1A1A" points="697.505,716.867 596.207,705.037 596.947,703.559 699.723,715.389 697.505,716.867 	"/>
	<polygon fill="#1A1A1A" points="732.258,700.601 631.697,689.508 632.437,688.032 734.476,699.122 732.258,700.601 	"/>
	<path fill="#1A1A1A" d="M696.768,654.018l-119.787,51.758l-3.694-1.479l120.521-51.019
		C694.394,654.511,695.625,653.584,696.768,654.018L696.768,654.018z"/>
	<polygon fill="#1A1A1A" points="649.445,666.588 629.482,661.411 632.437,660.673 652.403,665.108 649.445,666.588 	"/>
	<polygon fill="#1A1A1A" points="678.283,654.758 658.317,649.581 661.275,648.103 681.238,653.278 678.283,654.758 	"/>
	<polygon fill="#1A1A1A" points="620.607,678.418 600.641,673.981 603.602,672.503 623.564,676.938 620.607,678.418 	"/>
	<polygon fill="#1A1A1A" points="591.772,689.508 568.848,685.074 572.546,683.593 594.726,688.768 591.772,689.508 	"/>
	<polygon fill="#1A1A1A" points="563.67,701.338 540.01,696.164 542.971,694.683 566.631,700.601 563.67,701.338 	"/>
	<polygon fill="#E6E6E6" points="429.838,529.056 418.748,526.098 414.311,529.056 424.664,532.013 429.838,529.056 	"/>
	<polygon fill="#CCCCCC" points="443.149,532.013 432.796,529.796 426.881,532.753 437.974,535.711 443.149,532.013 	"/>
	<polygon fill="#CCCCCC" points="415.79,526.098 404.7,523.141 400.262,526.098 410.615,528.316 415.79,526.098 	"/>
	<polygon fill="#FFFFFF" points="401.741,522.401 391.39,519.443 385.475,522.401 397.305,525.362 401.741,522.401 	"/>
	<polygon fill="#E6E6E6" points="363.292,512.792 352.94,509.831 347.764,513.528 358.855,515.749 363.292,512.792 	"/>
	<polygon fill="#CCCCCC" points="377.34,515.749 366.249,513.528 361.074,516.486 371.425,518.707 377.34,515.749 	"/>
	<polygon fill="#CCCCCC" points="349.244,509.831 338.153,506.876 333.716,509.831 344.806,512.792 349.244,509.831 	"/>
	<polygon fill="#FFFFFF" points="335.934,506.876 325.583,504.656 318.927,506.876 330.759,509.831 335.934,506.876 	"/>
	<polygon fill="#E6E6E6" points="372.166,508.353 361.813,506.136 356.638,509.093 367.729,511.311 372.166,508.353 	"/>
	<polygon fill="#FFFFFF" points="386.214,511.311 375.123,509.093 369.947,512.051 380.298,514.268 386.214,511.311 	"/>
	<polygon fill="#CCCCCC" points="358.117,505.396 347.025,503.178 342.589,506.136 353.68,508.353 358.117,505.396 	"/>
	<polygon fill="#999999" points="344.806,502.438 333.716,500.221 327.8,503.178 339.631,505.396 344.806,502.438 	"/>
	<polygon fill="#999999" points="326.321,498 315.231,495.783 302.661,503.178 314.491,506.136 326.321,498 	"/>
	<polygon fill="#999999" points="310.794,495.043 300.442,492.826 287.872,500.221 299.703,502.438 310.794,495.043 	"/>
	<polygon fill="#999999" points="296.005,491.345 285.654,489.127 273.084,496.523 284.175,499.481 296.005,491.345 	"/>
	<polygon fill="#B3B3B3" points="262.733,483.953 167.349,463.25 155.517,469.906 250.901,492.085 262.733,483.953 	"/>
	<polygon fill="#999999" points="281.218,488.391 270.126,486.17 257.556,493.566 269.386,496.523 281.218,488.391 	"/>
	<path fill="#E6E6E6" d="M488.252,551.979c-7.209,9.258-1.817,25.433-8.133,24.4c-2.909-0.051,0-24.4,0-24.4l27.358-17.008
		C507.478,534.971,493.367,544.803,488.252,551.979L488.252,551.979z"/>
	<path fill="#E7E7E7" d="M480.12,575.639c-2.714-0.318,0-23.66,0-23.66L506,535.711c0,0-13.127,9.435-18.485,16.268
		C481.074,560.875,486.233,576.358,480.12,575.639L480.12,575.639z"/>
	<path fill="#E8E8E8" d="M480.12,574.899c-2.516-0.59,0-22.92,0-22.92l25.141-15.527c0,0-12.883,9.031-17.745,15.527
		C481.107,560.512,486.038,575.302,480.12,574.899L480.12,574.899z"/>
	<path fill="#E9E9E9" d="M480.12,573.422c-2.316-0.124,0-21.443,0-21.443l23.66-14.787c0,0-11.896,8.635-16.265,14.787
		C481.143,560.148,485.842,574.244,480.12,573.422L480.12,573.422z"/>
	<path fill="#EAEAEA" d="M480.12,572.682c-2.118-0.395,0-20.703,0-20.703l22.92-14.051c0,0-11.655,8.241-16.265,14.051
		C481.172,559.787,485.641,573.187,480.12,572.682L480.12,572.682z"/>
	<path fill="#EBEBEB" d="M480.12,571.205c-1.922,0.072,0-19.226,0-19.226l21.443-13.311c0,0-10.672,7.841-14.788,13.311
		C481.208,559.422,485.442,572.131,480.12,571.205L480.12,571.205z"/>
	<path fill="#EDEDED" d="M480.12,570.464c-1.727-0.195,0-18.485,0-18.485l20.703-12.57c0,0-10.426,7.443-14.788,12.57
		C481.239,559.058,485.247,571.075,480.12,570.464L480.12,570.464z"/>
	<path fill="#EEEEEE" d="M480.12,569.724c-1.528-0.466,0-17.745,0-17.745l19.226-11.83c0,0-9.444,7.043-13.311,11.83
		C481.275,558.695,485.048,570.016,480.12,569.724L480.12,569.724z"/>
	<path fill="#EFEFEF" d="M480.86,568.247c-2.07,0.004,0-16.268,0-16.268l17.745-11.093c0,0-9.2,6.646-12.57,11.093
		C481.305,558.333,484.849,568.963,480.86,568.247L480.86,568.247z"/>
	<path fill="#F0F0F0" d="M480.86,567.506c-1.874-0.268,0-15.527,0-15.527l16.265-10.353c0,0-8.214,6.249-11.83,10.353
		C481.341,557.972,484.651,567.907,480.86,567.506L480.86,567.506z"/>
	<path fill="#F1F1F1" d="M480.86,566.767c-1.679-0.539,0-14.788,0-14.788l15.524-9.612c0,0-7.967,5.852-11.09,9.612
		C481.372,557.608,484.453,566.851,480.86,566.767L480.86,566.767z"/>
	<path fill="#F3F3F3" d="M480.86,565.287c-1.48-0.066,0-13.308,0-13.308l14.048-8.873c0,0-6.989,5.449-9.613,9.613
		C481.405,557.245,484.253,565.792,480.86,565.287L480.86,565.287z"/>
	<path fill="#F4F4F4" d="M480.86,564.549c-1.281-0.34,0-12.57,0-12.57l13.308-8.133c0,0-6.743,5.052-9.613,8.873
		C481.438,556.88,484.055,564.736,480.86,564.549L480.86,564.549z"/>
	<path fill="#F5F5F5" d="M480.86,563.069c-1.086,0.13,0-11.09,0-11.09l12.57-7.396c0,0-6.499,4.654-8.876,8.136
		C481.473,556.516,483.86,563.68,480.86,563.069L480.86,563.069z"/>
	<path fill="#F6F6F6" d="M480.86,562.332c-0.891-0.144,0-10.353,0-10.353l11.09-6.655c0,0-5.515,4.258-7.396,7.396
		C481.503,556.152,483.664,562.624,480.86,562.332L480.86,562.332z"/>
	<path fill="#F8F8F8" d="M480.86,561.592c-0.692-0.41,0-8.873,0-8.873l10.35-6.655c0,0-5.271,3.857-7.395,6.655
		C481.537,555.794,483.462,561.568,480.86,561.592L480.86,561.592z"/>
	<path fill="#F9F9F9" d="M480.86,560.112c-0.493,0.06,0-7.393,0-7.393l8.869-5.918c0,0-4.287,3.46-5.914,5.918
		C481.57,555.43,483.267,560.508,480.86,560.112L480.86,560.112z"/>
	<path fill="#FAFAFA" d="M481.6,559.372c-1.038-0.211,0-6.652,0-6.652l7.393-5.178c0,0-4.041,3.063-5.178,5.178
		C481.606,555.066,483.068,559.456,481.6,559.372L481.6,559.372z"/>
	<path fill="#FBFBFB" d="M481.6,557.894c-0.84,0.256,0-5.175,0-5.175l5.915-4.438c0,0-3.063,2.665-4.438,4.438
		C481.636,554.702,482.867,558.4,481.6,557.894L481.6,557.894z"/>
	<path fill="#FCFCFC" d="M481.6,557.154c-0.644-0.015,0-4.435,0-4.435l5.175-2.957c0,0-2.816,1.525-3.697,2.957
		C481.669,554.338,482.671,557.343,481.6,557.154L481.6,557.154z"/>
	<path fill="#FEFEFE" d="M481.6,556.414c-0.445-0.282,0-3.694,0-3.694l3.694-2.221c0,0-1.832,1.129-2.957,2.221
		C481.703,553.974,482.472,556.285,481.6,556.414L481.6,556.414z"/>
	<path fill="#FFFFFF" d="M482.337,552.719c-0.599,0.894-0.063,2.512-0.737,2.218c-0.247,0.183,0-2.218,0-2.218l2.954-1.48
		C484.554,551.239,482.969,551.97,482.337,552.719L482.337,552.719z"/>
	<path fill="#999999" d="M55.697,495.783c0,0-0.2,14.619,1.479,21.443c2.172,6.27,4.868,22.06,6.655,23.66
		c2.064,1.48,48.062,34.013,48.062,34.013v13.311L9.854,512.792l-0.74-2.961c0,0,18.655-6.745,25.88-8.873
		C42.403,499.234,55.697,495.783,55.697,495.783L55.697,495.783z"/>
	<path fill="#808080" stroke="#000000" stroke-width="1.8485" stroke-linecap="square" stroke-miterlimit="2" d="M63.831,545.324
		c1.679,1.278,48.062,29.575,48.062,29.575v13.311L9.854,512.792l-0.74-2.961L63.831,545.324L63.831,545.324z"/>
	<polygon fill="#666666" points="329.278,365.646 287.872,354.556 81.576,410.752 517.09,507.613 540.01,500.958 151.081,416.667 
		329.278,365.646 	"/>
	<polygon fill="#D9D9D9" points="516.35,532.013 516.35,525.362 150.342,442.544 70.485,422.582 69.006,429.237 151.081,449.94 
		516.35,532.013 	"/>
	<polygon fill="#FFFFFF" points="444.629,394.484 556.278,416.667 632.437,464.727 542.231,493.566 444.629,394.484 	"/>
	<polygon fill="#FDFDFD" points="447.584,395.224 458.674,397.442 556.278,418.144 630.219,465.467 630.219,465.467 
		621.347,468.425 542.231,492.085 447.584,395.224 	"/>
	<polygon fill="#FBFBFB" points="451.282,395.964 461.634,398.182 556.278,419.625 627.262,465.467 627.262,465.467 
		618.389,468.425 542.971,490.608 451.282,395.964 	"/>
	<polygon fill="#F9F9F9" points="454.239,396.702 464.592,398.919 555.542,421.102 625.042,466.208 625.042,466.208 
		616.172,469.166 542.971,488.391 454.239,396.702 	"/>
	<polygon fill="#F8F8F8" points="457.197,397.442 467.549,399.659 555.542,422.582 622.086,466.945 622.827,466.945 
		613.952,469.906 543.708,486.911 457.197,397.442 	"/>
	<polygon fill="#F6F6F6" points="460.154,398.182 470.507,400.399 554.801,424.059 619.867,467.685 619.867,467.685 
		610.997,470.643 543.708,485.43 460.154,398.182 	"/>
	<polygon fill="#F4F4F4" points="463.115,398.919 474.205,401.139 554.801,425.54 617.649,468.425 617.649,468.425 608.777,471.383 
		544.448,483.213 463.115,398.919 	"/>
	<polygon fill="#F2F2F2" points="466.069,399.659 477.159,401.879 554.061,427.017 614.692,469.166 614.692,469.166 
		606.556,471.383 545.185,481.736 466.069,399.659 	"/>
	<polygon fill="#F0F0F0" points="469.03,400.399 480.12,402.617 554.061,427.757 612.474,469.166 612.474,469.906 603.602,472.123 
		545.185,480.255 469.03,400.399 	"/>
	<polygon fill="#EEEEEE" points="471.985,401.139 483.078,403.357 554.061,429.237 609.517,469.906 609.517,469.906 601.381,472.86 
		545.925,478.038 471.985,401.139 	"/>
	<polygon fill="#EDEDED" points="474.945,401.879 486.035,404.097 553.321,430.714 607.296,470.643 607.296,470.643 598.426,473.6 
		545.925,476.558 474.945,401.879 	"/>
	<polygon fill="#EBEBEB" points="478.639,402.617 488.993,404.837 553.321,432.195 604.342,471.383 604.342,471.383 596.207,474.34 
		546.666,475.081 478.639,402.617 	"/>
	<polygon fill="#E9E9E9" points="481.6,404.097 491.95,405.574 552.581,433.672 602.122,472.123 602.122,472.123 593.989,474.34 
		546.666,472.86 481.6,404.097 	"/>
	<polygon fill="#E7E7E7" points="484.554,404.837 494.908,406.314 552.581,435.153 599.164,472.123 599.164,472.86 591.032,475.081 
		547.406,471.383 484.554,404.837 	"/>
	<polygon fill="#E6E6E6" points="487.515,405.574 497.865,407.054 552.581,436.629 596.947,472.86 596.947,473.6 588.811,475.821 
		548.146,469.166 487.515,405.574 	"/>
	<polygon fill="#E3E3E3" points="490.469,406.314 500.823,407.794 551.84,438.11 593.989,473.6 593.989,473.6 585.857,476.558 
		548.146,467.685 490.469,406.314 	"/>
	<polygon fill="#E2E2E2" points="493.43,407.054 503.78,408.532 551.84,439.587 591.772,474.34 591.772,474.34 583.636,477.297 
		548.886,466.208 493.43,407.054 	"/>
	<polygon fill="#E0E0E0" points="496.384,407.794 506.738,409.272 551.1,441.067 588.811,475.081 588.811,475.081 581.418,477.297 
		548.886,463.988 496.384,407.794 	"/>
	<polygon fill="#DEDEDE" points="499.345,408.532 509.695,410.012 551.1,441.807 586.593,475.821 586.593,475.821 578.461,478.038 
		549.624,462.51 499.345,408.532 	"/>
	<polygon fill="#DCDCDC" points="503.04,409.272 512.653,410.752 550.364,443.285 583.636,475.821 583.636,476.558 576.241,478.778 
		549.624,461.03 503.04,409.272 	"/>
	<polygon fill="#DBDBDB" points="506,410.012 515.61,411.489 550.364,444.765 581.418,476.558 581.418,477.297 574.026,479.515 
		550.364,458.813 506,410.012 	"/>
	<polygon fill="#D9D9D9" points="508.955,410.752 518.571,412.229 579.202,478.038 571.066,480.255 508.955,410.752 	"/>
	<polygon fill="#E6E6E6" points="438.711,393.004 426.144,390.046 508.955,487.651 533.355,492.085 438.711,393.004 	"/>
	<path fill="#BFBFBF" stroke="#000000" stroke-width="1.8485" stroke-linecap="square" stroke-miterlimit="2" d="M748.523,421.842
		c0,0-1.513-3.914-2.954-7.392c-4.961-8.797-5.175-10.353-5.175-10.353l-432.559-85.034c0,0,4.53,13.804,12.57,16.268
		C327.77,337.488,748.523,421.842,748.523,421.842L748.523,421.842z"/>
	<path fill="#D1D1D1" d="M323.363,46.221c-7.456-0.991-7.764-11.697-13.309-15.527l3.698-5.915
		c6.469,4.544,9.202,13.94,14.788,18.485L323.363,46.221L323.363,46.221z"/>
	
		<polygon fill="#D9D9D9" stroke="#000000" stroke-width="0.9243" stroke-linecap="round" stroke-linejoin="round" stroke-miterlimit="2" points="
		706.377,391.527 706.377,392.267 639.833,128.295 647.967,123.86 711.553,386.352 706.377,391.527 	"/>
	
		<polygon fill="#E6E6E6" stroke="#000000" stroke-width="0.9243" stroke-linecap="round" stroke-linejoin="round" stroke-miterlimit="2" points="
		647.967,123.86 639.833,128.295 636.134,124.6 642.79,120.903 647.967,123.86 	"/>
	
		<polygon fill="#E6E6E6" stroke="#000000" stroke-width="0.6162" stroke-linecap="round" stroke-linejoin="round" stroke-miterlimit="2" points="
		642.79,120.903 636.134,124.6 266.429,66.924 272.344,65.447 642.79,120.903 	"/>
	<path fill="#E6E6E6" d="M212.452,15.166v-2.217l3.698-1.48h4.436c29.583,2.106,59.893,8.997,93.167,13.311l-3.698,5.915
		l-91.687-14.788L212.452,15.166L212.452,15.166z"/>
	<path fill="#D9D9D9" stroke="#000000" stroke-width="1.8485" stroke-linecap="square" stroke-miterlimit="2" d="M695.288,390.046
		c8.35-4.071,6.271-13.124,2.218-29.575L642.049,136.43c-1.339-5.554-0.764-11.099-10.353-11.83L267.169,67.664
		c-1.787-1.293-3.019,0.555-2.958,1.479l0.739,5.915l70.983,245.485l161.191,30.315L695.288,390.046L695.288,390.046
		L695.288,390.046z"/>
	<path fill="#E6E6E6" stroke="#000000" stroke-width="1.8485" stroke-linecap="square" stroke-miterlimit="2" d="M639.092,126.818
		l1.48,2.957l56.933,230.696c4.053,16.451,5.937,26.274-2.218,29.575l0.74-2.217l-1.48-5.175L633.917,134.95l-0.739-2.217
		l0.739-3.698l2.958-2.958L639.092,126.818L639.092,126.818z"/>
	
		<path fill="#FFFFFF" stroke="#000000" stroke-width="1.8485" stroke-linecap="round" stroke-linejoin="round" stroke-miterlimit="2" d="
		M633.177,132.733c-1.24-1.622,4.233-8.277,4.435-7.396L267.169,67.664c-2.969-1.999-3.701,2.743-2.219,8.134l0,0L633.177,132.733
		L633.177,132.733z"/>
	<polyline fill="#B3B3B3" stroke="#000000" stroke-width="1.2324" stroke-linecap="square" stroke-miterlimit="2" points="
		681.977,105.375 752.961,399.659 758.139,418.884 758.879,426.28 756.659,427.757 747.046,401.879 679.02,109.073 	"/>
	<polygon fill="#E6E6E6" points="667.93,92.064 460.894,61.749 328.54,43.264 324.104,46.961 668.667,96.5 673.105,93.543 
		667.93,92.064 	"/>
</g>
</svg>
